<?xml version="1.0" standalone="no"?>
<!DOCTYPE svg PUBLIC "-//W3C//DTD SVG 20010904//EN"
 "http://www.w3.org/TR/2001/REC-SVG-20010904/DTD/svg10.dtd">
<svg version="1.0" xmlns="http://www.w3.org/2000/svg"
 width="16.000000pt" height="16.000000pt" viewBox="0 0 16.000000 16.000000"
 preserveAspectRatio="xMidYMid meet">
<metadata>
Created by potrace 1.11, written by Peter Selinger 2001-2013
</metadata>
<g transform="translate(0.000000,16.000000) scale(0.001547,-0.001547)"
fill="#000000" stroke="none">
<path d="M2925 8340 c-250 -27 -431 -60 -604 -111 -58 -17 -122 -36 -141 -41
-77 -22 -293 -113 -421 -177 -301 -152 -564 -341 -806 -580 -115 -113 -243
-257 -243 -273 0 -4 548 -8 1218 -8 1318 0 1327 0 1601 -56 298 -60 534 -152
737 -290 54 -37 102 -70 107 -74 4 -3 -31 -85 -77 -181 -218 -449 -320 -892
-320 -1389 0 -113 6 -257 13 -320 91 -824 473 -1553 1096 -2091 227 -197 537
-390 805 -504 36 -15 80 -34 98 -42 l32 -13 0 688 0 689 -112 90 c-126 101
-221 196 -319 323 -461 590 -544 1410 -212 2074 309 616 894 1018 1582 1086
64 6 588 10 1393 10 l1290 0 -52 63 c-187 226 -485 485 -750 651 -832 523
-1867 628 -2790 284 -288 -107 -593 -275 -812 -446 -32 -24 -63 -42 -71 -39
-8 3 -79 44 -158 92 -177 107 -516 275 -706 349 -261 102 -529 177 -778 216
-147 24 -468 34 -600 20z"/>
</g>
</svg>
