<?xml version="1.0" encoding="UTF-8" standalone="no"?>
<!-- Created with Inkscape (http://www.inkscape.org/) -->

<svg
   xmlns:dc="http://purl.org/dc/elements/1.1/"
   xmlns:cc="http://creativecommons.org/ns#"
   xmlns:rdf="http://www.w3.org/1999/02/22-rdf-syntax-ns#"
   xmlns:svg="http://www.w3.org/2000/svg"
   xmlns="http://www.w3.org/2000/svg"
   xmlns:sodipodi="http://sodipodi.sourceforge.net/DTD/sodipodi-0.dtd"
   xmlns:inkscape="http://www.inkscape.org/namespaces/inkscape"
   width="145.77155mm"
   height="89.767822mm"
   viewBox="0 0 516.51335 318.07496"
   id="svg3357"
   version="1.1"
   inkscape:version="0.91 r13725"
   sodipodi:docname="trios_logo2.svg">
  <defs
     id="defs3359" />
  <sodipodi:namedview
     id="base"
     pagecolor="#ffffff"
     bordercolor="#666666"
     borderopacity="1.0"
     inkscape:pageopacity="0.0"
     inkscape:pageshadow="2"
     inkscape:zoom="0.35"
     inkscape:cx="-42.457601"
     inkscape:cy="-206.6768"
     inkscape:document-units="px"
     inkscape:current-layer="layer1"
     showgrid="false"
     fit-margin-top="0"
     fit-margin-left="0"
     fit-margin-right="0"
     fit-margin-bottom="0"
     borderlayer="false"
     inkscape:showpageshadow="true"
     inkscape:window-width="1366"
     inkscape:window-height="716"
     inkscape:window-x="-8"
     inkscape:window-y="-8"
     inkscape:window-maximized="1" />
  <metadata
     id="metadata3362">
    <rdf:RDF>
      <cc:Work
         rdf:about="">
        <dc:format>image/svg+xml</dc:format>
        <dc:type
           rdf:resource="http://purl.org/dc/dcmitype/StillImage" />
        <dc:title></dc:title>
      </cc:Work>
    </rdf:RDF>
  </metadata>
  <g
     inkscape:label="Layer 1"
     inkscape:groupmode="layer"
     id="layer1"
     transform="translate(-116.02903,-7.6104486)">
    <path
       style="fill:#b3b3b3;fill-opacity:1;stroke:none;stroke-width:0.73971015"
       d="m 149.70865,68.933449 c -21.0575,26.96984 -33.6795,60.846501 -33.67962,97.714851 2.5e-4,87.83364 71.2035,159.03678 159.03713,159.0371 35.48312,-0.0666 69.92475,-11.99743 97.84575,-33.89452 -16.46113,-12.92914 -30.299,-29.04183 -40.60751,-47.40235 -16.84737,12.50029 -37.26,19.26727 -58.23825,19.30665 -54.15,4.2e-4 -98.04925,-43.89691 -98.04887,-98.04688 -3.8e-4,-48.90481 35.83625,-89.334141 82.666,-96.714851 l -108.97463,0 z"
       id="path4689-7"
       inkscape:connector-curvature="0" />
    <path
       style="fill:#000000;fill-opacity:1;stroke:none;stroke-width:0.73971015"
       d="M 275.06581,7.6104486 C 224.82661,7.6106386 180.1017,30.965049 150.9564,67.342869 l 117.69731,0 c 20.1756,0.87796 41.6231,5.79084 56.73049,14.90625 3.2143,2.19452 6.42891,4.38866 9.6426,6.58399 -13.4114,23.746411 -20.4909,50.542631 -20.5586,77.814451 0.022,65.98425 40.7866,125.10135 102.4531,148.57812 l 0,-68.82421 c -26.5794,-18.29138 -42.4581,-48.48879 -42.4629,-80.75391 -4e-4,-54.14999 43.8969,-98.047331 98.04689,-98.046881 43.4314,0.0341 87.9388,0.0161 125.2422,0.0176 C 567.6183,29.757179 521.89159,7.6715986 473.50529,7.6104686 437.51331,7.6674686 402.605,19.931309 374.4857,42.397579 343.1059,22.008749 306.3038,8.0232286 275.0658,7.6104686 Z"
       id="path4852"
       inkscape:connector-curvature="0"
       sodipodi:nodetypes="ccccccccccccccc" />
    <path
       inkscape:connector-curvature="0"
       style="fill:#b3b3b3;fill-opacity:1;stroke:none;stroke-width:0.73971015"
       d="m 489.69664,69.210059 a 98.046084,98.046084 0 0 1 80.8555,96.437511 98.046084,98.046084 0 0 1 -98.04687,98.04686 98.046084,98.046084 0 0 1 -53.99212,-16.2832 l 0,68.3418 a 159.03769,159.03769 0 0 0 54.99212,9.93164 159.03769,159.03769 0 0 0 159.03713,-159.0371 159.03769,159.03769 0 0 0 -33.58401,-97.437511 l -109.26174,0 z"
       id="path3374-7-2-0-0" />
    <path
       inkscape:connector-curvature="0"
       style="fill:#b3b3b3;fill-opacity:1;stroke:none;stroke-width:0.73971015"
       d="m 416.98078,86.422949 a 98.046084,98.046084 0 0 0 -3.17187,2.26759 98.046084,98.046084 0 0 0 -7.36325,6.46875 98.046084,98.046084 0 0 0 -6.67963,7.169911 98.046084,98.046084 0 0 0 -5.93162,7.80274 98.046084,98.046084 0 0 0 -5.12313,8.35548 98.046084,98.046084 0 0 0 -4.26175,8.82421 98.046084,98.046084 0 0 0 -3.36125,9.20704 98.046084,98.046084 0 0 0 -2.42387,9.49608 98.046084,98.046084 0 0 0 -1.46488,9.68945 98.046084,98.046084 0 0 0 -0.4355,8.69337 98.046084,98.046084 0 0 1 0.04,1.09571 98.046084,98.046084 0 0 1 -0.055,1.0957 98.046084,98.046084 0 0 0 0.20712,5.8418 98.046084,98.046084 0 0 0 1.18163,9.72851 98.046084,98.046084 0 0 0 2.14637,9.5625 98.046084,98.046084 0 0 0 3.08988,9.30078 98.046084,98.046084 0 0 0 4.00387,8.94532 98.046084,98.046084 0 0 0 4.877,8.50194 98.046084,98.046084 0 0 0 5.69925,7.9707 98.046084,98.046084 0 0 0 6.46875,7.36329 98.046084,98.046084 0 0 0 7.17188,6.67968 98.046084,98.046084 0 0 0 6.15237,4.67773 159.03769,159.03769 0 0 0 21.04688,-78.66795 159.03769,159.03769 0 0 0 -21.8125,-80.070331 z"
       id="path4802" />
  </g>
</svg>
