<?xml version="1.0" encoding="UTF-8" standalone="no"?>
<!-- Created with Inkscape (http://www.inkscape.org/) -->

<svg
   xmlns:dc="http://purl.org/dc/elements/1.1/"
   xmlns:cc="http://creativecommons.org/ns#"
   xmlns:rdf="http://www.w3.org/1999/02/22-rdf-syntax-ns#"
   xmlns:svg="http://www.w3.org/2000/svg"
   xmlns="http://www.w3.org/2000/svg"
   xmlns:sodipodi="http://sodipodi.sourceforge.net/DTD/sodipodi-0.dtd"
   xmlns:inkscape="http://www.inkscape.org/namespaces/inkscape"
   width="210mm"
   height="297mm"
   viewBox="0 0 744.09448819 1052.3622047"
   id="svg4907"
   version="1.1"
   inkscape:version="0.91 r13725"
   sodipodi:docname="trios_logo.svg">
  <defs
     id="defs4909" />
  <sodipodi:namedview
     id="base"
     pagecolor="#ffffff"
     bordercolor="#666666"
     borderopacity="1.0"
     inkscape:pageopacity="0.0"
     inkscape:pageshadow="2"
     inkscape:zoom="0.35"
     inkscape:cx="-335"
     inkscape:cy="520"
     inkscape:document-units="px"
     inkscape:current-layer="layer1"
     showgrid="false"
     inkscape:window-width="1920"
     inkscape:window-height="1017"
     inkscape:window-x="-8"
     inkscape:window-y="-8"
     inkscape:window-maximized="1" />
  <metadata
     id="metadata4912">
    <rdf:RDF>
      <cc:Work
         rdf:about="">
        <dc:format>image/svg+xml</dc:format>
        <dc:type
           rdf:resource="http://purl.org/dc/dcmitype/StillImage" />
        <dc:title></dc:title>
      </cc:Work>
    </rdf:RDF>
  </metadata>
  <g
     inkscape:label="Layer 1"
     inkscape:groupmode="layer"
     id="layer1">
    <path
       style="fill:#b3b3b3;fill-opacity:1;stroke:none;stroke-width:0.73971015"
       d="m 149.70865,394.64773 c -21.0575,26.96984 -33.6795,60.8465 -33.67962,97.71485 2.5e-4,87.83364 71.2035,159.03678 159.03713,159.0371 35.48312,-0.0666 69.92475,-11.99743 97.84575,-33.89452 -16.46113,-12.92914 -30.299,-29.04183 -40.60751,-47.40235 -16.84737,12.50029 -37.26,19.26727 -58.23825,19.30665 -54.15,4.2e-4 -98.04925,-43.89691 -98.04887,-98.04688 -3.8e-4,-48.90481 35.83625,-89.33414 82.666,-96.71485 l -108.97463,0 z"
       id="path4689-7"
       inkscape:connector-curvature="0" />
    <path
       style="fill:#000000;fill-opacity:1;stroke:none;stroke-width:0.73971015"
       d="m 275.06581,333.32473 c -50.2392,1.9e-4 -94.96411,23.3546 -124.10941,59.73242 l 117.69731,0 c 20.1756,0.87796 41.6231,5.79084 56.73049,14.90625 3.2143,2.19452 6.42891,4.38866 9.6426,6.58399 -13.4114,23.74641 -20.4909,50.54263 -20.5586,77.81445 0.022,65.98425 40.7866,125.10135 102.4531,148.57812 l 0,-68.82421 c -26.5794,-18.29138 -42.4581,-48.48879 -42.4629,-80.75391 -4e-4,-54.14999 43.8969,-98.04733 98.04689,-98.04688 43.4314,0.0341 87.9388,0.0161 125.2422,0.0176 -30.12919,-37.8611 -75.8559,-59.94668 -124.2422,-60.00781 -35.99198,0.057 -70.90029,12.32084 -99.01959,34.78711 -31.3798,-20.38883 -68.1819,-34.37435 -99.4199,-34.78711 z"
       id="path4852"
       inkscape:connector-curvature="0"
       sodipodi:nodetypes="ccccccccccccccc" />
    <path
       inkscape:connector-curvature="0"
       style="fill:#b3b3b3;fill-opacity:1;stroke:none;stroke-width:0.73971015"
       d="m 489.69664,394.92434 a 98.046084,98.046084 0 0 1 80.8555,96.43751 98.046084,98.046084 0 0 1 -98.04687,98.04686 98.046084,98.046084 0 0 1 -53.99212,-16.2832 l 0,68.3418 a 159.03769,159.03769 0 0 0 54.99212,9.93164 159.03769,159.03769 0 0 0 159.03713,-159.0371 159.03769,159.03769 0 0 0 -33.58401,-97.43751 l -109.26174,0 z"
       id="path3374-7-2-0-0" />
    <path
       inkscape:connector-curvature="0"
       style="fill:#b3b3b3;fill-opacity:1;stroke:none;stroke-width:0.73971015"
       d="m 416.98078,412.13723 a 98.046084,98.046084 0 0 0 -3.17187,2.26759 98.046084,98.046084 0 0 0 -7.36325,6.46875 98.046084,98.046084 0 0 0 -6.67963,7.16991 98.046084,98.046084 0 0 0 -5.93162,7.80274 98.046084,98.046084 0 0 0 -5.12313,8.35548 98.046084,98.046084 0 0 0 -4.26175,8.82421 98.046084,98.046084 0 0 0 -3.36125,9.20704 98.046084,98.046084 0 0 0 -2.42387,9.49608 98.046084,98.046084 0 0 0 -1.46488,9.68945 98.046084,98.046084 0 0 0 -0.4355,8.69337 98.046084,98.046084 0 0 1 0.04,1.09571 98.046084,98.046084 0 0 1 -0.055,1.0957 98.046084,98.046084 0 0 0 0.20712,5.8418 98.046084,98.046084 0 0 0 1.18163,9.72851 98.046084,98.046084 0 0 0 2.14637,9.5625 98.046084,98.046084 0 0 0 3.08988,9.30078 98.046084,98.046084 0 0 0 4.00387,8.94532 98.046084,98.046084 0 0 0 4.877,8.50194 98.046084,98.046084 0 0 0 5.69925,7.9707 98.046084,98.046084 0 0 0 6.46875,7.36329 98.046084,98.046084 0 0 0 7.17188,6.67968 98.046084,98.046084 0 0 0 6.15237,4.67773 159.03769,159.03769 0 0 0 21.04688,-78.66795 159.03769,159.03769 0 0 0 -21.8125,-80.07033 z"
       id="path4802" />
  </g>
</svg>
